<svg version="1.2" xmlns="http://www.w3.org/2000/svg" viewBox="0 0 148 40" width="148" height="40">
	<title>Roastery-Station_Logo-svg</title>
	<style>
		.s0 { fill: #ffffff } 
	</style>
	<g id="Layer">
		<g id="Layer">
			<path id="Layer" fill-rule="evenodd" class="s0" d="m40.8 20.1c0 10.8-8.8 19.5-19.6 19.5-10.8 0-19.6-8.8-19.5-19.6 0-10.8 8.8-19.5 19.7-19.5 10.7 0 19.4 8.7 19.4 19.6zm-11.2 0.9c0.3-0.2 0.5-0.4 0.7-0.5 2.4-1.8 3.4-4.6 2.8-7.3-0.7-2.7-2.9-4.9-5.7-5.1-2.5-0.2-5.1-0.1-7.7-0.1-1.4 0-2.3 0.9-2.8 2.1-0.5 1.3-0.3 2.5 0.7 3.5 0.8 0.9 1.6 1.7 2.5 2.5 3.4 3.4 6.7 6.7 10.1 10.1 0.3 0.3 0.8 0.6 1.2 0.7 0.7 0.2 1.4-0.2 1.7-0.9 0.4-0.7 0.3-1.4-0.3-2-1-1-2.1-2-3.2-3zm-16.8-2c-0.3 0.2-0.4 0.3-0.6 0.4-2.5 1.7-3.7 4.8-2.9 7.7 0.8 2.9 3.4 4.9 6.5 5 2.2 0 4.3 0 6.5 0 1.5 0 2.6-0.7 3.1-2.1 0.6-1.4 0.3-2.6-0.7-3.7-1.7-1.8-3.5-3.5-5.2-5.3-2.4-2.4-4.9-4.9-7.4-7.3-0.8-0.8-1.8-0.8-2.5-0.1-0.7 0.7-0.7 1.7 0.1 2.5 1 1 2 1.9 3.1 2.9z"/>
			<path id="Layer" class="s0" d="m20.2 11.4c2.4 0 4.7-0.1 6.9 0 1.5 0.1 2.7 1.6 2.8 3.2 0.1 1.5-0.9 3-2.3 3.5-0.2 0.1-0.7 0-0.8-0.1-2.2-2.2-4.3-4.3-6.6-6.6z"/>
			<path id="Layer" class="s0" d="m22 28.6c-2.1 0-4.3 0.1-6.4 0-1.6-0.1-2.8-1.4-3-2.9-0.2-1.6 0.6-3.1 2.1-3.7 0.3-0.1 0.8-0.2 1 0 2.2 2.1 4.4 4.3 6.5 6.4-0.1 0.1-0.1 0.2-0.2 0.2z"/>
		</g>
		<g id="Layer">
			<path id="Layer" fill-rule="evenodd" class="s0" d="m54.7 16.8l-2.4-3.4h-2.6v3.4h-2.9v-12.4h5.4c3.3 0 5.4 1.7 5.4 4.5 0 1.9-0.9 3.2-2.5 3.9l2.8 4zm-2.7-10h-2.3v4.3h2.3c1.7 0 2.6-0.8 2.6-2.2 0.1-1.3-0.8-2.1-2.6-2.1z"/>
			<path id="Layer" fill-rule="evenodd" class="s0" d="m59.1 10.6c0-3.7 2.9-6.4 6.8-6.4 3.9 0 6.8 2.7 6.8 6.4 0 3.7-2.9 6.4-6.8 6.4-4 0-6.8-2.7-6.8-6.4zm10.6 0c0-2.4-1.7-4-3.9-4-2.2 0-3.9 1.6-3.9 4 0 2.4 1.7 4 3.9 4 2.2 0 3.9-1.6 3.9-4z"/>
			<path id="Layer" fill-rule="evenodd" class="s0" d="m82.7 14.2h-5.7l-1.1 2.7h-2.9l5.5-12.4h2.8l5.5 12.4h-3zm-0.9-2.2l-2-4.7-2 4.7z"/>
			<path id="Layer" class="s0" d="m87.1 15.6l1-2.2c1 0.8 2.6 1.3 4.1 1.3 1.7 0 2.4-0.6 2.4-1.3 0-2.3-7.2-0.7-7.2-5.3 0-2.1 1.7-3.9 5.2-3.9 1.6 0 3.1 0.4 4.3 1.1l-0.9 2.2c-1.1-0.7-2.3-1-3.4-1-1.7 0-2.4 0.6-2.4 1.4 0 2.3 7.2 0.7 7.2 5.2 0 2.1-1.7 3.8-5.2 3.8-2 0.1-4-0.5-5.1-1.3z"/>
			<path id="Layer" class="s0" d="m101.8 6.8h-4v-2.4h10.8v2.3h-4v10h-2.9v-9.9z"/>
			<path id="Layer" class="s0" d="m119.7 14.5v2.3h-9.6v-12.4h9.3v2.3h-6.4v2.7h5.7v2.2h-5.7v2.9z"/>
			<path id="Layer" fill-rule="evenodd" class="s0" d="m129.9 16.8l-2.4-3.4h-2.6v3.4h-2.9v-12.4h5.4c3.3 0 5.4 1.7 5.4 4.5 0 1.9-0.9 3.2-2.5 3.9l2.8 4zm-2.7-10h-2.3v4.3h2.3c1.7 0 2.6-0.8 2.6-2.2 0-1.3-0.9-2.1-2.6-2.1z"/>
			<path id="Layer" class="s0" d="m140.7 12.4v4.4h-2.9v-4.4l-4.8-8h3l3.3 5.5 3.3-5.5h2.8z"/>
			<path id="Layer" class="s0" d="m45.9 34.3l1-2.2c1 0.8 2.6 1.3 4.1 1.3 1.7 0 2.4-0.6 2.4-1.3 0-2.3-7.2-0.7-7.2-5.3 0-2.1 1.7-3.9 5.2-3.9 1.6 0 3.1 0.4 4.3 1.1l-0.9 2.2c-1.1-0.7-2.3-1-3.4-1-1.7 0-2.4 0.6-2.4 1.4 0 2.3 7.2 0.7 7.2 5.2 0 2.1-1.7 3.8-5.2 3.8-2 0.1-4-0.5-5.1-1.3z"/>
			<path id="Layer" class="s0" d="m60.5 25.5h-4v-2.3h10.8v2.3h-4v10h-2.9v-10z"/>
			<path id="Layer" fill-rule="evenodd" class="s0" d="m76.4 32.8h-5.7l-1.1 2.7h-2.9l5.5-12.4h2.8l5.5 12.4h-3zm-0.9-2.1l-2-4.7-2 4.7z"/>
			<path id="Layer" class="s0" d="m83.7 25.5h-4v-2.3h10.8v2.3h-4v10h-2.9v-10z"/>
			<path id="Layer" class="s0" d="m92.1 23.1h2.9v12.4h-2.9z"/>
			<path id="Layer" fill-rule="evenodd" class="s0" d="m97.1 29.3c0-3.7 2.9-6.4 6.8-6.4 3.9 0 6.8 2.7 6.8 6.4 0 3.7-2.9 6.4-6.8 6.4-3.9 0-6.8-2.7-6.8-6.4zm10.6 0c0-2.4-1.7-4-3.9-4-2.2 0-3.9 1.6-3.9 4 0 2.4 1.7 4 3.9 4 2.3 0 3.9-1.6 3.9-4z"/>
			<path id="Layer" class="s0" d="m124.1 23.1v12.4h-2.4l-6.2-7.5v7.5h-2.8v-12.4h2.4l6.2 7.5v-7.5z"/>
		</g>
	</g>
</svg>