<?xml version="1.0" standalone="no"?>
<!DOCTYPE svg PUBLIC "-//W3C//DTD SVG 20010904//EN"
 "http://www.w3.org/TR/2001/REC-SVG-20010904/DTD/svg10.dtd">
<svg version="1.0" xmlns="http://www.w3.org/2000/svg"
 width="250.000000pt" height="250.000000pt" viewBox="0 0 250.000000 250.000000"
 preserveAspectRatio="xMidYMid meet">
<metadata>
Created by potrace 1.14, written by Peter Selinger 2001-2017
</metadata>
<g transform="translate(0.000000,250.000000) scale(0.100000,-0.100000)"
fill="#000000" stroke="none">
<path d="M90 2450 c0 -3 -16 -4 -35 -2 l-35 4 0 -1200 0 -1200 25 -4 c14 -3
25 -2 25 1 0 3 36 4 80 1 44 -3 80 -3 80 0 0 3 36 3 80 0 44 -3 80 -3 80 0 0
3 36 3 80 0 44 -3 80 -3 80 0 0 6 263 3 298 -3 12 -2 22 -1 22 2 0 3 36 4 80
1 44 -3 80 -3 80 0 0 3 36 3 80 0 44 -3 80 -3 80 0 0 3 36 3 80 0 44 -3 80 -3
80 0 0 3 36 3 80 0 44 -3 80 -3 80 0 0 3 36 3 80 0 44 -3 80 -3 80 0 0 3 36 3
80 0 44 -3 80 -3 80 0 0 3 36 3 80 0 44 -3 80 -3 80 0 0 3 36 3 80 0 44 -3 80
-3 80 0 0 3 36 3 80 0 44 -3 80 -3 80 0 0 3 25 3 55 2 l54 -4 -2 44 c0 24 2
49 6 56 5 6 5 12 0 12 -10 0 -9 52 1 68 4 7 3 12 -3 12 -7 0 -7 8 -1 24 6 17
5 26 -2 28 -8 3 -7 11 2 27 9 18 9 25 1 31 -8 5 -9 14 -2 33 7 18 7 27 -1 29
-8 3 -7 11 2 27 9 18 9 25 1 31 -8 5 -9 14 -2 33 7 18 7 27 -1 29 -8 3 -8 10
-1 23 6 11 7 29 3 40 -4 11 -3 26 2 33 6 6 7 12 2 12 -11 0 -10 51 0 68 4 7 3
12 -3 12 -7 0 -7 8 -1 24 6 16 5 26 -1 28 -7 2 -7 12 0 30 7 18 7 28 0 30 -7
2 -7 12 0 30 7 19 7 28 -1 30 -8 3 -7 11 2 27 9 18 9 25 1 31 -8 5 -9 14 -2
33 7 18 7 27 -1 29 -8 3 -8 10 -1 23 6 11 7 29 3 40 -4 11 -3 26 2 33 6 6 7
12 2 12 -11 0 -10 51 0 68 4 7 3 12 -3 12 -7 0 -7 8 -1 24 6 17 5 26 -2 28 -8
3 -7 11 2 27 9 18 9 25 1 31 -8 5 -9 14 -2 33 7 18 7 27 -1 29 -8 3 -7 11 2
27 9 18 9 25 1 31 -8 5 -9 14 -2 33 7 18 7 27 -1 29 -8 3 -8 10 -1 23 6 11 7
29 3 40 -4 11 -3 26 2 33 6 6 7 12 2 12 -11 0 -10 51 0 68 4 7 3 12 -3 12 -7
0 -7 8 -1 24 6 17 5 26 -2 28 -8 3 -7 11 2 27 9 18 9 25 1 31 -8 5 -9 14 -2
33 7 18 7 27 -1 29 -8 3 -7 11 2 27 9 18 9 25 1 31 -8 5 -9 14 -2 33 7 18 7
27 -1 29 -8 3 -8 10 -1 23 6 11 7 29 3 40 -4 11 -3 26 2 33 6 6 7 12 2 12 -11
0 -10 51 0 68 4 7 3 12 -3 12 -7 0 -7 8 -1 24 6 17 5 26 -2 28 -8 3 -7 11 2
27 9 18 9 25 1 31 -8 5 -9 14 -2 33 6 15 7 27 3 27 -9 0 -8 42 1 57 4 7 3 14
-2 18 -5 3 -8 15 -6 26 3 13 0 19 -8 16 -7 -2 -22 0 -34 4 -13 5 -23 5 -23 1
0 -5 -22 -6 -50 -2 -27 4 -50 4 -50 1 0 -8 -116 -4 -129 4 -6 3 -11 2 -11 -3
0 -4 -22 -6 -50 -2 -27 4 -50 4 -50 1 0 -8 -116 -4 -129 4 -6 3 -11 2 -11 -3
0 -4 -22 -6 -50 -2 -27 4 -50 4 -50 1 0 -8 -116 -4 -129 4 -6 3 -11 2 -11 -3
0 -4 -22 -6 -50 -2 -27 4 -50 4 -50 1 0 -8 -116 -4 -129 4 -6 3 -11 2 -11 -3
0 -4 -22 -6 -50 -2 -27 4 -50 4 -50 1 0 -8 -116 -4 -129 4 -6 3 -11 2 -11 -3
0 -4 -22 -6 -50 -2 -28 4 -50 4 -50 1 0 -8 -116 -4 -129 4 -6 3 -11 2 -11 -3
0 -4 -22 -6 -50 -2 -27 4 -50 4 -50 1 0 -8 -116 -4 -129 4 -6 3 -11 2 -11 -3
0 -4 -22 -6 -50 -2 -28 4 -50 4 -50 1 0 -8 -116 -4 -129 4 -6 3 -11 2 -11 -3
0 -4 -22 -6 -50 -2 -27 4 -50 4 -50 1 0 -8 -116 -4 -129 4 -6 3 -11 2 -11 -3
0 -4 -22 -6 -50 -2 -27 4 -50 4 -50 0z"/>
</g>
</svg>
